<mxfile host="app.diagrams.net" agent="Mozilla/5.0 (Windows NT 10.0; Win64; x64) AppleWebKit/537.36 (KHTML, like Gecko) Chrome/130.0.0.0 Safari/537.36" version="24.8.6">
  <diagram name="Page-1" id="3wNur722nkyVa8EtAo86">
    <mxGraphModel dx="1434" dy="738" grid="1" gridSize="10" guides="1" tooltips="1" connect="1" arrows="1" fold="1" page="1" pageScale="1" pageWidth="850" pageHeight="1100" math="0" shadow="0">
      <root>
        <mxCell id="0" />
        <mxCell id="1" parent="0" />
        <mxCell id="lEbbfkc3tWbqAsbj1fwQ-17" style="edgeStyle=orthogonalEdgeStyle;rounded=0;orthogonalLoop=1;jettySize=auto;html=1;" edge="1" parent="1" source="2">
          <mxGeometry relative="1" as="geometry">
            <mxPoint x="170" y="137" as="targetPoint" />
          </mxGeometry>
        </mxCell>
        <mxCell id="2" value="" style="ellipse;fillColor=strokeColor;" parent="1" vertex="1">
          <mxGeometry x="91" y="130" width="14" height="14" as="geometry" />
        </mxCell>
        <mxCell id="9" value="" style="ellipse;shape=endState;fillColor=strokeColor;" parent="1" vertex="1">
          <mxGeometry x="513" y="440" width="14" height="14" as="geometry" />
        </mxCell>
        <mxCell id="lEbbfkc3tWbqAsbj1fwQ-18" value="Initial" style="text;html=1;align=center;verticalAlign=middle;resizable=0;points=[];autosize=1;strokeColor=none;fillColor=none;" vertex="1" parent="1">
          <mxGeometry x="75" y="148" width="50" height="30" as="geometry" />
        </mxCell>
        <mxCell id="lEbbfkc3tWbqAsbj1fwQ-21" style="edgeStyle=orthogonalEdgeStyle;rounded=0;orthogonalLoop=1;jettySize=auto;html=1;entryX=0;entryY=0.5;entryDx=0;entryDy=0;" edge="1" parent="1" source="lEbbfkc3tWbqAsbj1fwQ-19" target="lEbbfkc3tWbqAsbj1fwQ-20">
          <mxGeometry relative="1" as="geometry" />
        </mxCell>
        <mxCell id="lEbbfkc3tWbqAsbj1fwQ-22" value="&lt;font style=&quot;font-size: 14px;&quot;&gt;[Регистрация]&lt;/font&gt;" style="edgeLabel;html=1;align=center;verticalAlign=middle;resizable=0;points=[];" vertex="1" connectable="0" parent="lEbbfkc3tWbqAsbj1fwQ-21">
          <mxGeometry x="-0.1833" y="1" relative="1" as="geometry">
            <mxPoint x="5" as="offset" />
          </mxGeometry>
        </mxCell>
        <mxCell id="lEbbfkc3tWbqAsbj1fwQ-38" style="edgeStyle=orthogonalEdgeStyle;rounded=0;orthogonalLoop=1;jettySize=auto;html=1;entryX=0;entryY=0.5;entryDx=0;entryDy=0;" edge="1" parent="1" source="lEbbfkc3tWbqAsbj1fwQ-19" target="9">
          <mxGeometry relative="1" as="geometry">
            <mxPoint x="210" y="310" as="targetPoint" />
            <Array as="points">
              <mxPoint x="230" y="447" />
            </Array>
          </mxGeometry>
        </mxCell>
        <mxCell id="lEbbfkc3tWbqAsbj1fwQ-40" value="[Пользователь решает не регистрироваться]" style="edgeLabel;html=1;align=center;verticalAlign=middle;resizable=0;points=[];" vertex="1" connectable="0" parent="lEbbfkc3tWbqAsbj1fwQ-38">
          <mxGeometry x="0.3108" y="-1" relative="1" as="geometry">
            <mxPoint x="38" as="offset" />
          </mxGeometry>
        </mxCell>
        <mxCell id="lEbbfkc3tWbqAsbj1fwQ-19" value="&lt;span style=&quot;font-size:12.0pt;line-height:115%;&lt;br/&gt;font-family:&amp;quot;Times New Roman&amp;quot;,serif;mso-fareast-font-family:&amp;quot;Times New Roman&amp;quot;;&lt;br/&gt;mso-font-kerning:0pt;mso-ligatures:none;mso-ansi-language:EN-US;mso-fareast-language:&lt;br/&gt;EN-US;mso-bidi-language:AR-SA&quot;&gt;Незарегистрированный пользователь&lt;/span&gt;" style="rounded=1;whiteSpace=wrap;html=1;strokeColor=default;align=center;verticalAlign=middle;fontFamily=Helvetica;fontSize=12;fontColor=default;fillColor=default;" vertex="1" parent="1">
          <mxGeometry x="170" y="107" width="190" height="60" as="geometry" />
        </mxCell>
        <mxCell id="lEbbfkc3tWbqAsbj1fwQ-35" style="edgeStyle=orthogonalEdgeStyle;rounded=0;orthogonalLoop=1;jettySize=auto;html=1;entryX=1;entryY=0.5;entryDx=0;entryDy=0;" edge="1" parent="1" source="lEbbfkc3tWbqAsbj1fwQ-20" target="9">
          <mxGeometry relative="1" as="geometry">
            <mxPoint x="810" y="450" as="targetPoint" />
            <Array as="points">
              <mxPoint x="811" y="137" />
              <mxPoint x="811" y="447" />
            </Array>
          </mxGeometry>
        </mxCell>
        <mxCell id="lEbbfkc3tWbqAsbj1fwQ-39" value="[Пользователь решает не авторизовываться]" style="edgeLabel;html=1;align=center;verticalAlign=middle;resizable=0;points=[];" vertex="1" connectable="0" parent="lEbbfkc3tWbqAsbj1fwQ-35">
          <mxGeometry x="0.4791" y="1" relative="1" as="geometry">
            <mxPoint x="-24" as="offset" />
          </mxGeometry>
        </mxCell>
        <mxCell id="lEbbfkc3tWbqAsbj1fwQ-20" value="&lt;span style=&quot;font-size:12.0pt;line-height:115%;&lt;br/&gt;font-family:&amp;quot;Times New Roman&amp;quot;,serif;mso-fareast-font-family:&amp;quot;Times New Roman&amp;quot;;&lt;br/&gt;mso-font-kerning:0pt;mso-ligatures:none;mso-ansi-language:EN-US;mso-fareast-language:&lt;br/&gt;EN-US;mso-bidi-language:AR-SA&quot;&gt;Зарегистрированный пользователь&lt;/span&gt;" style="rounded=1;whiteSpace=wrap;html=1;strokeColor=default;align=center;verticalAlign=middle;fontFamily=Helvetica;fontSize=12;fontColor=default;fillColor=default;" vertex="1" parent="1">
          <mxGeometry x="520" y="107" width="190" height="60" as="geometry" />
        </mxCell>
        <mxCell id="lEbbfkc3tWbqAsbj1fwQ-26" style="edgeStyle=orthogonalEdgeStyle;rounded=0;orthogonalLoop=1;jettySize=auto;html=1;entryX=0.5;entryY=1;entryDx=0;entryDy=0;" edge="1" parent="1" source="lEbbfkc3tWbqAsbj1fwQ-25" target="lEbbfkc3tWbqAsbj1fwQ-19">
          <mxGeometry relative="1" as="geometry" />
        </mxCell>
        <mxCell id="lEbbfkc3tWbqAsbj1fwQ-27" value="&lt;font style=&quot;font-size: 14px;&quot;&gt;[Удаление аккаунта]&lt;/font&gt;" style="edgeLabel;html=1;align=center;verticalAlign=middle;resizable=0;points=[];" vertex="1" connectable="0" parent="lEbbfkc3tWbqAsbj1fwQ-26">
          <mxGeometry x="0.1208" y="1" relative="1" as="geometry">
            <mxPoint x="49" as="offset" />
          </mxGeometry>
        </mxCell>
        <mxCell id="lEbbfkc3tWbqAsbj1fwQ-31" style="edgeStyle=orthogonalEdgeStyle;rounded=0;orthogonalLoop=1;jettySize=auto;html=1;entryX=1;entryY=0.75;entryDx=0;entryDy=0;exitX=1;exitY=0.5;exitDx=0;exitDy=0;" edge="1" parent="1" source="lEbbfkc3tWbqAsbj1fwQ-25" target="lEbbfkc3tWbqAsbj1fwQ-20">
          <mxGeometry relative="1" as="geometry">
            <Array as="points">
              <mxPoint x="740" y="350" />
              <mxPoint x="740" y="152" />
            </Array>
          </mxGeometry>
        </mxCell>
        <mxCell id="lEbbfkc3tWbqAsbj1fwQ-32" value="&lt;font style=&quot;font-size: 14px;&quot;&gt;[Выход из аккаунт]&lt;/font&gt;" style="edgeLabel;html=1;align=center;verticalAlign=middle;resizable=0;points=[];" vertex="1" connectable="0" parent="lEbbfkc3tWbqAsbj1fwQ-31">
          <mxGeometry x="-0.1621" y="2" relative="1" as="geometry">
            <mxPoint y="-6" as="offset" />
          </mxGeometry>
        </mxCell>
        <mxCell id="lEbbfkc3tWbqAsbj1fwQ-33" style="edgeStyle=orthogonalEdgeStyle;rounded=0;orthogonalLoop=1;jettySize=auto;html=1;entryX=0.5;entryY=0;entryDx=0;entryDy=0;" edge="1" parent="1" source="lEbbfkc3tWbqAsbj1fwQ-25" target="9">
          <mxGeometry relative="1" as="geometry" />
        </mxCell>
        <mxCell id="lEbbfkc3tWbqAsbj1fwQ-41" value="[Состояние остаётся таким же]" style="edgeLabel;html=1;align=center;verticalAlign=middle;resizable=0;points=[];" vertex="1" connectable="0" parent="lEbbfkc3tWbqAsbj1fwQ-33">
          <mxGeometry x="-0.2" y="1" relative="1" as="geometry">
            <mxPoint as="offset" />
          </mxGeometry>
        </mxCell>
        <mxCell id="lEbbfkc3tWbqAsbj1fwQ-25" value="&lt;span style=&quot;font-size: 16px;&quot;&gt;Авторизованный пользователь&lt;/span&gt;" style="rounded=1;whiteSpace=wrap;html=1;strokeColor=default;align=center;verticalAlign=middle;fontFamily=Helvetica;fontSize=12;fontColor=default;fillColor=default;" vertex="1" parent="1">
          <mxGeometry x="425" y="320" width="190" height="60" as="geometry" />
        </mxCell>
        <mxCell id="lEbbfkc3tWbqAsbj1fwQ-29" style="edgeStyle=orthogonalEdgeStyle;rounded=0;orthogonalLoop=1;jettySize=auto;html=1;entryX=0.447;entryY=-0.017;entryDx=0;entryDy=0;entryPerimeter=0;" edge="1" parent="1" source="lEbbfkc3tWbqAsbj1fwQ-20" target="lEbbfkc3tWbqAsbj1fwQ-25">
          <mxGeometry relative="1" as="geometry" />
        </mxCell>
        <mxCell id="lEbbfkc3tWbqAsbj1fwQ-30" value="&lt;font style=&quot;font-size: 14px;&quot;&gt;[Вход в аккаунт]&lt;/font&gt;" style="edgeLabel;html=1;align=center;verticalAlign=middle;resizable=0;points=[];" vertex="1" connectable="0" parent="lEbbfkc3tWbqAsbj1fwQ-29">
          <mxGeometry x="-0.3143" y="-2" relative="1" as="geometry">
            <mxPoint as="offset" />
          </mxGeometry>
        </mxCell>
        <mxCell id="lEbbfkc3tWbqAsbj1fwQ-34" value="Final" style="text;html=1;align=center;verticalAlign=middle;resizable=0;points=[];autosize=1;strokeColor=none;fillColor=none;" vertex="1" parent="1">
          <mxGeometry x="495" y="454" width="50" height="30" as="geometry" />
        </mxCell>
      </root>
    </mxGraphModel>
  </diagram>
</mxfile>
